<?xml version="1.0" encoding="utf-8"?>
<!-- Generator: Adobe Illustrator 27.8.1, SVG Export Plug-In . SVG Version: 6.00 Build 0)  -->
<svg version="1.1" id="Layer_1" xmlns="http://www.w3.org/2000/svg" xmlns:xlink="http://www.w3.org/1999/xlink" x="0px" y="0px"
	 viewBox="0 0 841.9 595.3" style="enable-background:new 0 0 841.9 595.3;" xml:space="preserve">
<style type="text/css">
	.st0{fill:#30B44A;}
	.st1{fill:#FFCD07;}
	.st2{fill:#081826;}
</style>
<g>
	<path class="st0" d="M160.5,333.8v-99h58.4c6.2,0,11.7,1.4,16.5,4.2c4.7,2.8,8.5,6.7,11.2,11.7c2.7,5,4,10.8,4,17.4
		c0,6.8-1.4,12.7-4.1,17.8c-2.7,5-6.5,8.9-11.2,11.7c-4.7,2.8-10.2,4.2-16.3,4.2h-26.6v31.9H160.5z M192.2,278.7h16
		c3.4,0,5.9-0.9,7.6-2.6c1.7-1.7,2.5-4.3,2.5-7.6c0-2.3-0.4-4.2-1.1-5.7c-0.7-1.5-1.8-2.6-3.3-3.4c-1.5-0.8-3.4-1.2-5.7-1.2h-16
		V278.7z"/>
	<path class="st0" d="M255.7,333.8v-99h62c7.4,0,13.5,1.5,18.5,4.5c4.9,3,8.7,6.9,11.1,11.7c2.5,4.8,3.7,10,3.7,15.5
		c0,6.3-1.5,12-4.5,16.9c-3,4.9-7,8.9-12.1,11.9l19.4,38.6h-35.7l-15.1-33.2h-15.7v33.2H255.7z M287.5,278.5h22.3
		c2.5,0,4.6-1,6.3-2.9c1.7-2,2.6-4.6,2.6-7.8c0-2-0.4-3.8-1.1-5.3c-0.8-1.5-1.8-2.8-3.2-3.7c-1.3-0.9-2.9-1.4-4.6-1.4h-22.3V278.5z"
		/>
	<path class="st1" d="M562.4,333.8v-99h31.8v99H562.4z"/>
	<path class="st1" d="M640.4,333.8c-8.5,0-15.9-1.2-22-3.7c-6.1-2.5-10.8-6.4-14.1-11.7c-3.3-5.3-4.9-12.2-4.9-20.6v-1.3h29.8v1.2
		c0,4.6,0.9,7.8,2.6,9.7c1.7,1.9,4.3,2.8,7.6,2.8s5.9-0.9,7.6-2.8c1.7-1.9,2.6-5.1,2.6-9.7v-64.4h31.8v64.6c0,8.4-1.6,15.3-4.9,20.6
		c-3.3,5.3-8,9.2-14.1,11.7C656.3,332.5,649,333.8,640.4,333.8z"/>
	<g>
		<path class="st2" d="M220.7,372.4v-17.9h14v2.9h-10.6v4.4h9.4v2.9h-9.4v4.8h10.8v2.9H220.7z"/>
		<path class="st2" d="M239,372.4l7-17.9h4.3l7,17.9h-3.7l-1.4-3.8H244l-1.4,3.8H239z M245.1,365.7h6l-1.8-4.9
			c-0.1-0.2-0.2-0.4-0.2-0.7c-0.1-0.3-0.2-0.6-0.3-0.9c-0.1-0.3-0.2-0.6-0.3-1c-0.1-0.3-0.2-0.6-0.3-0.9H248
			c-0.1,0.4-0.2,0.8-0.4,1.2c-0.1,0.5-0.3,0.9-0.4,1.3c-0.1,0.4-0.3,0.7-0.3,0.9L245.1,365.7z"/>
		<path class="st2" d="M262.1,372.4v-17.9h9.4c1.3,0,2.4,0.2,3.3,0.7c0.9,0.5,1.5,1.1,2,1.9c0.4,0.8,0.7,1.8,0.7,3
			c0,1.2-0.3,2.2-0.8,3.1c-0.5,0.9-1.3,1.6-2.3,2l3.7,7.2h-3.7l-3.3-6.7h-5.6v6.7H262.1z M265.5,362.9h5.8c0.9,0,1.5-0.3,2-0.8
			c0.5-0.5,0.7-1.2,0.7-2.1c0-0.6-0.1-1.1-0.3-1.5c-0.2-0.4-0.5-0.7-0.9-0.9c-0.4-0.2-0.9-0.3-1.5-0.3h-5.8V362.9z"/>
		<path class="st2" d="M287.3,372.4v-15h-5.7v-2.9h14.9v2.9h-5.8v15H287.3z"/>
		<path class="st2" d="M301.7,372.4v-17.9h3.4v7.3h8.4v-7.3h3.4v17.9h-3.4v-7.7h-8.4v7.7H301.7z"/>
		<path class="st2" d="M323.5,372.4v-17.9h3.4v17.9H323.5z"/>
		<path class="st2" d="M333.5,372.4v-17.9h3.2l7.7,10.6c0.1,0.1,0.2,0.2,0.3,0.4s0.2,0.4,0.3,0.5s0.2,0.3,0.2,0.4h0.1
			c0-0.2,0-0.5,0-0.7s0-0.5,0-0.7v-10.6h3.3v17.9h-3.2l-7.7-10.7c-0.1-0.2-0.3-0.5-0.5-0.8c-0.2-0.3-0.3-0.5-0.4-0.6h-0.1
			c0,0.2,0,0.5,0,0.7c0,0.2,0,0.5,0,0.7v10.7H333.5z"/>
		<path class="st2" d="M363.4,372.8c-2.8,0-4.9-0.7-6.5-2.2c-1.5-1.5-2.3-3.8-2.3-7.1c0-2.1,0.4-3.8,1.1-5.2
			c0.7-1.4,1.8-2.4,3.1-3.1c1.4-0.7,3-1,4.9-1c1.1,0,2.2,0.1,3.2,0.4s1.9,0.7,2.7,1.2c0.8,0.5,1.4,1.2,1.8,2
			c0.4,0.8,0.7,1.8,0.7,2.9h-3.5c0-0.6-0.1-1.1-0.4-1.5c-0.3-0.4-0.6-0.8-1-1.1s-1-0.5-1.5-0.7c-0.6-0.1-1.2-0.2-1.8-0.2
			c-1,0-1.8,0.1-2.5,0.4c-0.7,0.3-1.3,0.6-1.8,1.1c-0.5,0.5-0.8,1.2-1.1,1.9c-0.2,0.8-0.4,1.7-0.4,2.7v0.5c0,1.4,0.2,2.6,0.6,3.5
			c0.4,0.9,1,1.6,1.8,2c0.8,0.4,1.8,0.6,3,0.6c1,0,1.9-0.2,2.7-0.5c0.8-0.3,1.4-0.8,1.8-1.4c0.4-0.6,0.7-1.3,0.7-2.2v-0.2H363v-2.8
			h9.1v9.6h-2.4l-0.3-2c-0.5,0.5-1.1,1-1.7,1.3c-0.6,0.3-1.2,0.6-2,0.8C365.1,372.7,364.3,372.8,363.4,372.8z"/>
		<path class="st2" d="M390.9,372.4v-15h-5.7v-2.9H400v2.9h-5.8v15H390.9z"/>
		<path class="st2" d="M405.3,372.4v-17.9h14v2.9h-10.6v4.4h9.4v2.9h-9.4v4.8h10.8v2.9H405.3z"/>
		<path class="st2" d="M433.4,372.8c-1.8,0-3.4-0.3-4.7-1c-1.3-0.6-2.3-1.7-3-3c-0.7-1.4-1-3.1-1-5.3c0-3.2,0.8-5.5,2.3-7
			c1.5-1.5,3.7-2.3,6.4-2.3c1.5,0,2.8,0.3,4,0.8c1.2,0.5,2.1,1.3,2.9,2.3c0.7,1,1.1,2.3,1.1,3.9h-3.5c0-0.9-0.2-1.6-0.6-2.2
			c-0.4-0.6-0.9-1.1-1.6-1.4c-0.7-0.3-1.4-0.5-2.3-0.5c-1.2,0-2.2,0.2-3,0.7c-0.8,0.5-1.4,1.1-1.7,2.1c-0.4,0.9-0.6,2-0.6,3.4v0.6
			c0,1.4,0.2,2.5,0.6,3.4c0.4,0.9,0.9,1.6,1.7,2c0.8,0.5,1.8,0.7,3,0.7c0.9,0,1.7-0.2,2.4-0.5c0.7-0.3,1.2-0.8,1.6-1.4
			c0.4-0.6,0.6-1.3,0.6-2.2h3.3c0,1.6-0.3,2.9-1,3.9c-0.7,1-1.6,1.8-2.8,2.3C436.2,372.5,434.9,372.8,433.4,372.8z"/>
		<path class="st2" d="M446.9,372.4v-17.9h3.4v7.3h8.4v-7.3h3.4v17.9h-3.4v-7.7h-8.4v7.7H446.9z"/>
		<path class="st2" d="M468.7,372.4v-17.9h3.2l7.7,10.6c0.1,0.1,0.2,0.2,0.3,0.4s0.2,0.4,0.3,0.5c0.1,0.2,0.2,0.3,0.2,0.4h0.1
			c0-0.2,0-0.5,0-0.7s0-0.5,0-0.7v-10.6h3.3v17.9h-3.2l-7.7-10.7c-0.1-0.2-0.3-0.5-0.5-0.8s-0.3-0.5-0.4-0.6H472c0,0.2,0,0.5,0,0.7
			c0,0.2,0,0.5,0,0.7v10.7H468.7z"/>
		<path class="st2" d="M498.7,372.8c-1.9,0-3.5-0.3-4.8-1c-1.4-0.7-2.4-1.7-3.1-3.1c-0.7-1.4-1.1-3.1-1.1-5.2c0-2.1,0.4-3.8,1.1-5.2
			s1.8-2.4,3.1-3.1c1.4-0.7,3-1,4.8-1c1.9,0,3.5,0.3,4.9,1c1.4,0.7,2.4,1.7,3.1,3.1c0.7,1.4,1.1,3.1,1.1,5.2c0,2.1-0.4,3.8-1.1,5.2
			c-0.7,1.4-1.8,2.4-3.1,3.1C502.2,372.4,500.6,372.8,498.7,372.8z M498.7,369.9c0.9,0,1.7-0.1,2.4-0.4c0.7-0.3,1.3-0.6,1.7-1.2
			c0.5-0.5,0.8-1.1,1.1-1.9c0.2-0.8,0.4-1.6,0.4-2.6v-0.6c0-1-0.1-1.9-0.4-2.7c-0.2-0.8-0.6-1.4-1.1-1.9c-0.5-0.5-1.1-0.9-1.7-1.2
			c-0.7-0.3-1.5-0.4-2.4-0.4c-0.9,0-1.7,0.1-2.4,0.4c-0.7,0.3-1.3,0.6-1.7,1.2c-0.5,0.5-0.8,1.2-1.1,1.9c-0.2,0.8-0.4,1.7-0.4,2.7
			v0.6c0,1,0.1,1.9,0.4,2.6c0.2,0.8,0.6,1.4,1.1,1.9c0.5,0.5,1.1,0.9,1.7,1.2C497,369.8,497.8,369.9,498.7,369.9z"/>
		<path class="st2" d="M513.5,372.4v-17.9h3.4v15h9v3H513.5z"/>
		<path class="st2" d="M538.5,372.8c-1.9,0-3.5-0.3-4.8-1c-1.4-0.7-2.4-1.7-3.1-3.1c-0.7-1.4-1.1-3.1-1.1-5.2c0-2.1,0.4-3.8,1.1-5.2
			s1.8-2.4,3.1-3.1c1.4-0.7,3-1,4.8-1c1.9,0,3.5,0.3,4.9,1c1.4,0.7,2.4,1.7,3.1,3.1c0.7,1.4,1.1,3.1,1.1,5.2c0,2.1-0.4,3.8-1.1,5.2
			c-0.7,1.4-1.8,2.4-3.1,3.1C542,372.4,540.4,372.8,538.5,372.8z M538.5,369.9c0.9,0,1.7-0.1,2.4-0.4c0.7-0.3,1.3-0.6,1.7-1.2
			c0.5-0.5,0.8-1.1,1.1-1.9c0.2-0.8,0.4-1.6,0.4-2.6v-0.6c0-1-0.1-1.9-0.4-2.7c-0.2-0.8-0.6-1.4-1.1-1.9c-0.5-0.5-1.1-0.9-1.7-1.2
			c-0.7-0.3-1.5-0.4-2.4-0.4c-0.9,0-1.7,0.1-2.4,0.4c-0.7,0.3-1.3,0.6-1.7,1.2c-0.5,0.5-0.8,1.2-1.1,1.9c-0.2,0.8-0.4,1.7-0.4,2.7
			v0.6c0,1,0.1,1.9,0.4,2.6c0.2,0.8,0.6,1.4,1.1,1.9c0.5,0.5,1.1,0.9,1.7,1.2S537.6,369.9,538.5,369.9z"/>
		<path class="st2" d="M561.5,372.8c-2.8,0-4.9-0.7-6.5-2.2c-1.5-1.5-2.3-3.8-2.3-7.1c0-2.1,0.4-3.8,1.1-5.2
			c0.7-1.4,1.8-2.4,3.1-3.1c1.4-0.7,3-1,4.9-1c1.1,0,2.2,0.1,3.2,0.4c1,0.3,1.9,0.7,2.7,1.2c0.8,0.5,1.4,1.2,1.8,2
			c0.4,0.8,0.7,1.8,0.7,2.9h-3.5c0-0.6-0.1-1.1-0.4-1.5c-0.3-0.4-0.6-0.8-1-1.1s-1-0.5-1.5-0.7c-0.6-0.1-1.2-0.2-1.8-0.2
			c-1,0-1.8,0.1-2.5,0.4c-0.7,0.3-1.3,0.6-1.8,1.1c-0.5,0.5-0.8,1.2-1.1,1.9c-0.2,0.8-0.4,1.7-0.4,2.7v0.5c0,1.4,0.2,2.6,0.6,3.5
			c0.4,0.9,1,1.6,1.8,2c0.8,0.4,1.8,0.6,3,0.6c1,0,1.9-0.2,2.7-0.5c0.8-0.3,1.4-0.8,1.8-1.4c0.4-0.6,0.7-1.3,0.7-2.2v-0.2h-5.7v-2.8
			h9.1v9.6h-2.4l-0.3-2c-0.5,0.5-1.1,1-1.7,1.3c-0.6,0.3-1.2,0.6-2,0.8C563.2,372.7,562.4,372.8,561.5,372.8z"/>
		<path class="st2" d="M576.7,372.4v-17.9h3.4v17.9H576.7z"/>
		<path class="st2" d="M586.7,372.4v-17.9h14v2.9h-10.6v4.4h9.4v2.9h-9.4v4.8h10.8v2.9H586.7z"/>
		<path class="st2" d="M613.6,372.8c-1,0-1.9-0.1-2.9-0.3c-0.9-0.2-1.7-0.6-2.4-1c-0.7-0.5-1.2-1-1.6-1.7c-0.4-0.7-0.6-1.5-0.6-2.4
			c0-0.1,0-0.2,0-0.3c0-0.1,0-0.2,0-0.2h3.4c0,0,0,0.1,0,0.2c0,0.1,0,0.2,0,0.3c0,0.6,0.2,1.1,0.5,1.5c0.3,0.4,0.8,0.7,1.4,0.9
			c0.6,0.2,1.4,0.3,2.2,0.3c0.6,0,1.1,0,1.5-0.1c0.4-0.1,0.8-0.2,1.1-0.3c0.3-0.1,0.6-0.3,0.8-0.5c0.2-0.2,0.4-0.4,0.5-0.6
			c0.1-0.2,0.1-0.5,0.1-0.7c0-0.5-0.2-0.9-0.5-1.3c-0.3-0.3-0.7-0.6-1.3-0.8c-0.5-0.2-1.1-0.4-1.8-0.6c-0.7-0.2-1.4-0.4-2.1-0.6
			c-0.7-0.2-1.4-0.4-2.1-0.7c-0.7-0.3-1.3-0.6-1.8-1c-0.5-0.4-1-0.9-1.3-1.5c-0.3-0.6-0.5-1.3-0.5-2.1c0-0.8,0.2-1.6,0.5-2.2
			c0.4-0.6,0.9-1.1,1.5-1.6c0.7-0.4,1.4-0.7,2.3-0.9c0.9-0.2,1.8-0.3,2.8-0.3c1,0,1.9,0.1,2.7,0.3c0.8,0.2,1.6,0.5,2.2,0.9
			c0.6,0.4,1.1,1,1.5,1.6c0.4,0.7,0.5,1.4,0.5,2.3v0.3h-3.4v-0.3c0-0.5-0.2-0.9-0.5-1.3c-0.3-0.3-0.7-0.6-1.3-0.8s-1.2-0.3-1.9-0.3
			c-0.8,0-1.5,0.1-2,0.2c-0.6,0.1-1,0.4-1.3,0.7c-0.3,0.3-0.4,0.6-0.4,1.1c0,0.4,0.2,0.8,0.5,1.1c0.3,0.3,0.7,0.5,1.3,0.8
			c0.5,0.2,1.1,0.4,1.8,0.6c0.7,0.2,1.4,0.4,2.1,0.6c0.7,0.2,1.4,0.4,2.1,0.7c0.7,0.3,1.3,0.6,1.8,1c0.5,0.4,1,0.9,1.3,1.5
			c0.3,0.6,0.5,1.3,0.5,2.1c0,1.3-0.3,2.4-1,3.2c-0.7,0.8-1.6,1.4-2.7,1.8C616.4,372.6,615.1,372.8,613.6,372.8z"/>
	</g>
	<g>
		<polygon class="st1" points="523.2,234.8 490,304 490,234.8 458.2,234.8 458.1,234.8 457.4,222.5 454.3,271.2 454.1,274.1 
			457.4,274.3 481.4,275.8 462.9,333.8 475.7,333.8 490,333.8 509.6,333.8 557.2,234.8 		"/>
		<polygon class="st0" points="459,293.8 435.3,292 453.5,234.8 440.7,234.8 426.4,234.8 406.8,234.8 359.2,333.8 393.2,333.8 
			426.4,264.6 426.4,333.8 458.1,333.8 459,346.1 462.6,297.4 462.9,294.1 		"/>
	</g>
</g>
</svg>
